<svg width="250" height="29" viewBox="0 0 250 29" fill="none" xmlns="http://www.w3.org/2000/svg">
<path d="M31.2674 5.63137C33.7349 5.63137 35.8632 6.86513 36.9031 8.7995L39.7055 7.17357C38.0531 4.31389 34.8585 2.49409 31.2674 2.49409C25.2969 2.49409 21.0096 6.9797 21.0096 12.6682C21.0096 18.3568 25.2969 22.8424 31.2674 22.8424C34.885 22.8424 38.0796 20.9917 39.7055 18.132L36.9031 16.5325C35.894 18.4669 33.7349 19.7007 31.2674 19.7007C27.033 19.7007 24.2306 16.7 24.2306 12.6638C24.2306 8.62765 27.033 5.62696 31.2674 5.62696V5.63137Z" fill="#301056"/>
<path d="M47.8569 8.0989C43.7635 8.0989 40.4588 11.2935 40.4588 15.4706C40.4588 19.6478 43.7679 22.8424 47.8569 22.8424C51.946 22.8424 55.2551 19.6169 55.2551 15.4706C55.2551 11.3243 51.9768 8.0989 47.8569 8.0989ZM47.8569 19.899C45.3894 19.899 43.4859 18.0219 43.4859 15.4706C43.4859 12.9194 45.3938 11.0423 47.8569 11.0423C50.3201 11.0423 52.228 12.9194 52.228 15.4706C52.228 18.0219 50.3201 19.899 47.8569 19.899Z" fill="#301056"/>
<path d="M72.3517 8.0989C70.4746 8.0989 68.9897 8.85678 68.0644 10.3153C67.2536 8.91406 65.9053 8.0989 64.0855 8.0989C62.2657 8.0989 60.9746 8.77306 60.0757 10.1434V8.46021H57.0486V22.4766H60.0757V14.629C60.0757 12.0778 61.4769 10.9277 63.1866 10.9277C64.8962 10.9277 65.8216 12.0205 65.8216 13.9813V22.4766H68.8487V14.629C68.8487 12.0778 70.1089 10.9277 71.9022 10.9277C73.5546 10.9277 74.6209 12.0205 74.6209 13.9813V22.4766H77.6481V13.7874C77.6481 10.2844 75.5198 8.0989 72.3517 8.0989Z" fill="#301056"/>
<path d="M88.0522 8.0989C85.8667 8.0989 84.2143 8.99779 83.148 10.4827V8.46462H80.1209V28.0859H83.148V20.4894C84.2143 21.9479 85.8667 22.8424 88.0522 22.8424C91.8637 22.8424 95.0318 19.6478 95.0318 15.4706C95.0318 11.2935 91.8637 8.0989 88.0522 8.0989ZM87.5763 19.9562C85.0515 19.9562 83.148 18.0792 83.148 15.4706C83.148 12.8621 85.0559 10.985 87.5763 10.985C90.0967 10.985 92.0046 12.8621 92.0046 15.4706C92.0046 18.0792 90.0967 19.9562 87.5763 19.9562Z" fill="#301056"/>
<path d="M107.928 10.4519C106.862 8.99338 105.21 8.0989 103.024 8.0989C99.2128 8.0989 96.0447 11.2935 96.0447 15.4706C96.0447 19.6478 99.2128 22.8424 103.024 22.8424C105.21 22.8424 106.862 21.9435 107.928 20.4586V22.4766H110.956V8.46021H107.928V10.4519ZM103.5 19.9518C100.975 19.9518 99.0718 18.0748 99.0718 15.4662C99.0718 12.8577 100.98 10.9806 103.5 10.9806C106.021 10.9806 107.928 12.8577 107.928 15.4662C107.928 18.0748 106.021 19.9518 103.5 19.9518Z" fill="#301056"/>
<path d="M116.586 10.8176V8.46459H113.558V22.481H116.586V15.4177C116.586 12.2804 118.912 11.3551 120.904 11.4917V8.21343C119.137 8.21343 117.427 8.91404 116.586 10.822V10.8176Z" fill="#301056"/>
<path d="M128.597 8.0989C124.195 8.0989 121.199 11.3243 121.199 15.4706C121.199 19.6169 124.2 22.8424 128.822 22.8424C131.567 22.8424 133.673 21.6923 134.96 19.7888L132.466 18.3303C131.792 19.3129 130.532 20.0664 128.848 20.0664C126.606 20.0664 124.839 18.9472 124.363 16.7573H135.519C135.577 16.3651 135.63 15.9157 135.63 15.4971C135.63 11.4609 132.77 8.0989 128.593 8.0989H128.597ZM124.336 14.2942C124.755 12.1923 126.297 10.8484 128.571 10.8484C130.391 10.8484 132.157 11.8839 132.58 14.2942H124.341H124.336Z" fill="#301056"/>
<path d="M146.883 5.63134C149.35 5.63134 151.478 6.8651 152.518 8.79947L155.321 7.17354C153.668 4.31386 150.474 2.49406 146.883 2.49406C140.912 2.49406 136.625 6.97967 136.625 12.6682C136.625 18.3567 140.912 22.8423 146.883 22.8423C150.5 22.8423 153.695 20.9917 155.321 18.132L152.518 16.5325C151.509 18.4669 149.35 19.7006 146.883 19.7006C142.648 19.7006 139.846 16.7 139.846 12.6638C139.846 8.62762 142.648 5.62693 146.883 5.62693V5.63134Z" fill="#301056"/>
<path d="M163.474 8.0989C159.381 8.0989 156.076 11.2935 156.076 15.4706C156.076 19.6478 159.385 22.8424 163.474 22.8424C167.563 22.8424 170.872 19.6169 170.872 15.4706C170.872 11.3243 167.594 8.0989 163.474 8.0989ZM163.474 19.899C161.007 19.899 159.103 18.0219 159.103 15.4706C159.103 12.9194 161.011 11.0423 163.474 11.0423C165.937 11.0423 167.845 12.9194 167.845 15.4706C167.845 18.0219 165.937 19.899 163.474 19.899Z" fill="#301056"/>
<path d="M175.132 12.329C175.132 11.3199 176.084 10.844 177.177 10.844C178.327 10.844 179.305 11.3464 179.812 12.4435L182.363 11.0115C181.381 9.16083 179.477 8.09451 177.177 8.09451C174.317 8.09451 172.048 9.74687 172.048 12.3818C172.048 17.4006 179.587 15.9994 179.587 18.4934C179.587 19.6126 178.552 20.062 177.203 20.062C175.661 20.062 174.542 19.3041 174.092 18.0439L171.484 19.5553C172.383 21.5734 174.401 22.8336 177.203 22.8336C180.23 22.8336 182.667 21.3178 182.667 18.5154C182.667 13.3292 175.128 14.8714 175.128 12.3201L175.132 12.329Z" fill="#301056"/>
<path d="M199.733 8.0989C197.855 8.0989 196.371 8.85678 195.445 10.3153C194.634 8.91406 193.286 8.0989 191.466 8.0989C189.647 8.0989 188.355 8.77306 187.457 10.1434V8.46021H184.429V22.4766H187.457V14.629C187.457 12.0778 188.858 10.9277 190.567 10.9277C192.277 10.9277 193.202 12.0205 193.202 13.9813V22.4766H196.23V14.629C196.23 12.0778 197.49 10.9277 199.283 10.9277C200.935 10.9277 202.002 12.0205 202.002 13.9813V22.4766H205.029V13.7874C205.029 10.2844 202.901 8.0989 199.733 8.0989Z" fill="#301056"/>
<path d="M214.072 8.0989C209.67 8.0989 206.674 11.3243 206.674 15.4706C206.674 19.6169 209.674 22.8424 214.297 22.8424C217.042 22.8424 219.148 21.6923 220.434 19.7888L217.941 18.3303C217.266 19.3129 216.006 20.0664 214.323 20.0664C212.08 20.0664 210.313 18.9472 209.837 16.7573H220.994C221.051 16.3651 221.104 15.9157 221.104 15.4971C221.104 11.4609 218.245 8.0989 214.067 8.0989H214.072ZM209.811 14.2942C210.229 12.1923 211.772 10.8484 214.045 10.8484C215.865 10.8484 217.632 11.8839 218.055 14.2942H209.815H209.811Z" fill="#301056"/>
<path d="M233.098 2.49406C232.032 2.49406 231.164 3.36197 231.164 4.42814C231.164 5.49431 232.032 6.36223 233.098 6.36223C234.164 6.36223 235.032 5.46347 235.032 4.42814C235.032 3.39281 234.164 2.49406 233.098 2.49406Z" fill="#301056"/>
<path d="M234.613 8.46023H231.586V22.4767H234.613V8.46023Z" fill="#301056"/>
<path d="M247.396 17.7134C246.722 19.0045 245.352 19.8725 243.668 19.8725C241.201 19.8725 239.324 17.9954 239.324 15.4706C239.324 12.9458 241.201 11.0688 243.668 11.0688C245.352 11.0688 246.722 11.9104 247.339 13.2278L249.947 11.7121C248.828 9.52655 246.444 8.09451 243.695 8.09451C239.46 8.09451 236.297 11.2891 236.297 15.4662C236.297 19.6434 239.465 22.838 243.695 22.838C246.44 22.838 248.824 21.4103 250 19.194L247.392 17.709L247.396 17.7134Z" fill="#301056"/>
<path d="M225.673 4.53859L222.646 5.43747V18.1056C222.646 21.7496 225.378 23.0406 230.031 22.4766V19.7579C227.731 19.8681 225.673 19.8989 225.673 18.1056V13.338C225.673 13.0824 225.546 12.8445 225.33 12.7035L224.144 11.928C223.893 11.7649 224.012 11.3772 224.307 11.3772H230.031V8.46019H225.673V4.53419V4.53859Z" fill="#301056"/>
<path d="M17.3344 21.3529H13.5538V19.3613C13.5538 18.8149 13.1087 18.3654 12.5579 18.3654H9.18272C4.11988 18.3654 0 14.2456 0 9.18272C0 4.11989 4.11988 0 9.18272 0H17.3344V3.7806H9.18272C6.20406 3.7806 3.78501 6.20406 3.78501 9.17831C3.78501 12.1526 6.20847 14.576 9.18272 14.576H12.5579C15.1929 14.576 17.3344 16.7175 17.3344 19.3524V21.3441V21.3529Z" fill="url(#paint0_linear_88_740)"/>
<path d="M17.3344 25.1335H9.18272C4.11988 25.1335 0 21.0136 0 15.9508C0 10.8879 4.11988 6.76806 9.18272 6.76806H12.5579C13.1043 6.76806 13.5538 6.32304 13.5538 5.77225V3.7762H17.3344V5.77225C17.3344 8.40722 15.1929 10.5487 12.5579 10.5487H9.18272C6.20406 10.5487 3.78501 12.9721 3.78501 15.9464C3.78501 18.9206 6.20847 21.3441 9.18272 21.3441H17.3344V25.1247V25.1335Z" fill="url(#paint1_linear_88_740)"/>
<defs>
<linearGradient id="paint0_linear_88_740" x1="8.66718" y1="3.63079" x2="8.66718" y2="20.1632" gradientUnits="userSpaceOnUse">
<stop stop-color="#EA83F5"/>
<stop offset="0.05" stop-color="#E578E8"/>
<stop offset="0.15" stop-color="#D95DC7"/>
<stop offset="0.28" stop-color="#C73292"/>
<stop offset="0.36" stop-color="#BC1873"/>
<stop offset="0.54" stop-color="#C41873"/>
<stop offset="0.83" stop-color="#DA1873"/>
<stop offset="1" stop-color="#EA1873"/>
</linearGradient>
<linearGradient id="paint1_linear_88_740" x1="8.67159" y1="3.54267" x2="8.67159" y2="25.8165" gradientUnits="userSpaceOnUse">
<stop stop-color="#EA83F5"/>
<stop offset="0.79" stop-color="#EA1873"/>
</linearGradient>
</defs>
</svg>
